<svg viewBox="0 0 1320 111" fill="none" xmlns="http://www.w3.org/2000/svg">
<path fill-rule="evenodd" clip-rule="evenodd" d="M0 0L54.6562 4.17052C110.344 8.34104 219.656 16.6821 330 30.7977C440.344 45.2341 549.656 65.7659 660 69.9364C770.344 74.1069 879.656 61.5954 990 57.7457C1100.34 53.5751 1209.66 57.7457 1265.34 59.6705L1320 61.5954V111H1265.34C1209.66 111 1100.34 111 990 111C879.656 111 770.344 111 660 111C549.656 111 440.344 111 330 111C219.656 111 110.344 111 54.6562 111H0V0Z" fill="#3B89FC"/>
<path fill-rule="evenodd" clip-rule="evenodd" d="M0 44.4L44 53.28C88 62.16 176 79.92 264 75.48C352 71.04 440 44.4 528 26.64C616 8.88 704 0 792 0C880 0 968 8.88 1056 24.42C1144 39.96 1232 62.16 1276 73.26L1320 84.36V111H1276C1232 111 1144 111 1056 111C968 111 880 111 792 111C704 111 616 111 528 111C440 111 352 111 264 111C176 111 88 111 44 111H0V44.4Z" fill="#224957" fill-opacity="0.8"/>
</svg>
