<svg xmlns="http://www.w3.org/2000/svg" viewBox="0 0 138.28 120.06"><defs><style>.cls-1{fill:#20df7f;}.cls-2{fill:#1dcc70;}.cls-3{fill:#2d3b4f;}.cls-4{fill:#fff;}</style></defs><g id="leave_1" data-name="leave 1"><path class="cls-1" d="M597.93,655.88s-2.25-25.6,19.82-37.5,40-7.32,40-7.32,1.12,14.88-4.82,24.44-18.73,18.56-25.4,21-24.53,4.26-24.75,3.19,26.76-21.53,28-24.61S602,656.71,600.1,657.28,598,659.23,597.93,655.88Z" transform="translate(-523.32 -540)"/><path class="cls-2" d="M811,579.63" transform="translate(-523.32 -540)"/></g><g id="leave_small" data-name="leave small"><path class="cls-1" d="M592.46,655.05s-7.24-34.44-48.06-19.82a26.8,26.8,0,0,0,4.88,12.16s8.25,12.65,24.53,12.54C573.81,659.93,588.81,661.32,592.46,655.05Z" transform="translate(-523.32 -540)"/></g><g id="roof"><path class="cls-3" d="M635.18,603.19" transform="translate(-523.32 -540)"/><path class="cls-3" d="M572,559.81" transform="translate(-523.32 -540)"/><path class="cls-4" d="M655,593s9.64,1.25,5.7-8.18l-57.86-41.41a16.07,16.07,0,0,0-19.6,0c-10.61,7.55-22.72,17.54-22.72,17.54L560.4,553l-19.9.85.13,19.74-16.88,13.65c.36-.33-3.65,8.63,7.2,6.7l60.78-44.36" transform="translate(-523.32 -540)"/></g><g id="windows"><path class="cls-4" d="M588.4,606.17V589H571.25s-2.81.37-2.81,2.54v14.65Z" transform="translate(-523.32 -540)"/><path class="cls-4" d="M594.87,606.11V589H612s2.82.08,2.82,2.49v14.58Z" transform="translate(-523.32 -540)"/><path class="cls-4" d="M568.43,610.26h20v17.25H571.32s-2.89.37-2.89-2.52Z" transform="translate(-523.32 -540)"/><path class="cls-4" d="M595,627.41v-17h17.56s4.71,0,.1,3.89l-7.93,5.16S601.87,627.09,595,627.41Z" transform="translate(-523.32 -540)"/></g></svg>